<svg xmlns="http://www.w3.org/2000/svg" width="13.458" height="13.458" viewBox="0 0 13.458 13.458">
  <g id="information" transform="translate(-1 -1)">
    <path id="Path_13" data-name="Path 13" d="M7.729,1a6.729,6.729,0,1,0,6.729,6.729A6.729,6.729,0,0,0,7.729,1Zm0,12.235a5.506,5.506,0,1,1,5.506-5.506A5.506,5.506,0,0,1,7.729,13.235Z"/>
    <path id="Path_14" data-name="Path 14" d="M11.612,9A.612.612,0,0,0,11,9.612v4.282a.612.612,0,0,0,1.223,0V9.612A.612.612,0,0,0,11.612,9Z" transform="translate(-3.883 -2.441)"/>
    <circle id="Ellipse_1" data-name="Ellipse 1" cx="1" cy="1" r="1" transform="translate(6.729 3.394)"/>
  </g>
</svg>
