<svg xmlns="http://www.w3.org/2000/svg" width="37.737" height="37.737" viewBox="0 0 37.737 37.737">
  <path id="linkedin" d="M18.869,0A18.869,18.869,0,1,0,37.737,18.869,18.871,18.871,0,0,0,18.869,0ZM13.386,28.524H8.79V14.7h4.6Zm-2.3-15.713h-.03a2.4,2.4,0,1,1,.06-4.777,2.4,2.4,0,1,1-.031,4.777ZM29.955,28.524H25.361v-7.4c0-1.859-.665-3.126-2.328-3.126a2.516,2.516,0,0,0-2.358,1.681,3.147,3.147,0,0,0-.151,1.121v7.721h-4.6s.06-12.528,0-13.825h4.6v1.958a4.562,4.562,0,0,1,4.141-2.282c3.023,0,5.29,1.976,5.29,6.222Zm0,0"/>
</svg>
