<svg id="logo-emblemat" xmlns="http://www.w3.org/2000/svg" width="31.449" height="31.449" viewBox="0 0 31.449 31.449">
  <g id="Layer_1">
    <rect id="Rectangle_13" data-name="Rectangle 13" width="2.642" height="2.642" transform="translate(28.808 28.808)" fill="#ba324f"/>
    <rect id="Rectangle_14" data-name="Rectangle 14" width="2.642" height="2.642" transform="translate(23.587 26.229)" fill="#ba324f"/>
    <rect id="Rectangle_15" data-name="Rectangle 15" width="2.642" height="2.642" transform="translate(26.229 23.587)" fill="#ba324f"/>
    <path id="Path_1" data-name="Path 1" d="M14.435,26.229A11.794,11.794,0,1,1,26.229,14.435v6.573h2.642V14.435A14.435,14.435,0,1,0,14.435,28.871h6.573V26.229Z" fill="#055a7c"/>
    <path id="Path_2" data-name="Path 2" d="M25.952,16.6a9.183,9.183,0,0,0,0,18.366H35.1V25.815A9.194,9.194,0,0,0,25.952,16.6Zm6.51,15.725h-6.51a6.542,6.542,0,1,1,6.573-6.51l-.063,6.51Z" transform="translate(-11.517 -11.379)" fill="#219fc1"/>
    <path id="Path_3" data-name="Path 3" d="M37.331,33.4a3.931,3.931,0,0,0,0,7.862h3.931V37.331A3.913,3.913,0,0,0,37.331,33.4Zm1.289,5.221H37.331a1.289,1.289,0,1,1,1.289-1.289Z" transform="translate(-22.896 -22.896)" fill="#ba324f"/>
  </g>
</svg>
