<svg id="logo" xmlns="http://www.w3.org/2000/svg" width="156.883" height="52.551" viewBox="0 0 156.883 52.551">
  <g id="Group_5" data-name="Group 5">
    <g id="Layer_1">
      <rect id="Rectangle_13" data-name="Rectangle 13" width="4.414" height="4.414" transform="translate(48.136 48.136)" fill="#ba324f"/>
      <rect id="Rectangle_14" data-name="Rectangle 14" width="4.414" height="4.414" transform="translate(39.413 43.827)" fill="#ba324f"/>
      <rect id="Rectangle_15" data-name="Rectangle 15" width="4.414" height="4.414" transform="translate(43.827 39.413)" fill="#ba324f"/>
      <path id="Path_1" data-name="Path 1" d="M24.121,43.827A19.706,19.706,0,1,1,43.827,24.121V35.1h4.414V24.121A24.121,24.121,0,1,0,24.121,48.241H35.1V43.827Z" fill="#055a7c"/>
      <path id="Path_2" data-name="Path 2" d="M32.092,16.6a15.345,15.345,0,0,0,0,30.69H47.384V32A15.363,15.363,0,0,0,32.092,16.6ZM42.97,42.875H32.092A10.931,10.931,0,1,1,43.075,32L42.97,42.875Z" transform="translate(-7.971 -7.877)" fill="#219fc1"/>
      <path id="Path_3" data-name="Path 3" d="M39.969,33.4a6.569,6.569,0,1,0,0,13.138h6.569V39.969A6.538,6.538,0,0,0,39.969,33.4Zm2.155,8.723H39.969a2.155,2.155,0,1,1,2.155-2.155Z" transform="translate(-15.848 -15.848)" fill="#ba324f"/>
    </g>
  </g>
  <g id="Group_6" data-name="Group 6" transform="translate(69.576 2.104)">
    <path id="Path_4" data-name="Path 4" d="M1.95,41.491V6.6H4.741V39H19.953v2.492Zm27.912,0V6.6H46.51V9.192H32.654V20.915h9.53l-.957,2.731H32.654V39H46.41v2.492Zm50.98,0L71.671,26.837,62.46,41.491H59.011L70.036,23.946,59.968,6.6h3.15l8.553,14.654L80.344,6.6h3.15L73.366,23.946,84.292,41.491Z" transform="translate(-1.95 -6.6)" fill="#415056"/>
  </g>
  <g id="Group_7" data-name="Group 7" transform="translate(64.611 43.51)">
    <path id="Path_5" data-name="Path 5" d="M.938,8.193h0a1.63,1.63,0,0,0,.328.82h0a2.032,2.032,0,0,0,.759.615h0a2.488,2.488,0,0,0,1.128.246h0a2.79,2.79,0,0,0,1.6-.431h0a1.518,1.518,0,0,0,.636-1.353h0a1.392,1.392,0,0,0-.308-.923h0a2.33,2.33,0,0,0-.759-.595h0q-.472-.205-1.271-.492h0a14.78,14.78,0,0,1-1.374-.554h0a2.689,2.689,0,0,1-.861-.7h0A1.641,1.641,0,0,1,.446,3.724h0A1.853,1.853,0,0,1,.774,2.679h0a2.224,2.224,0,0,1,.923-.8h0a3.557,3.557,0,0,1,1.558-.308h0a5.028,5.028,0,0,1,1,.082h0a4.885,4.885,0,0,1,.82.287h0l-.226.677h0a3.321,3.321,0,0,0-1.579-.369h0a2.6,2.6,0,0,0-1.517.39h0a1.292,1.292,0,0,0-.574,1.107h0a1.07,1.07,0,0,0,.287.759h0a2.144,2.144,0,0,0,.7.492h0q.41.185,1.169.451h0a13.5,13.5,0,0,1,1.456.574h0a2.617,2.617,0,0,1,.964.759h0a1.953,1.953,0,0,1,.39,1.251h0a2.394,2.394,0,0,1-.738,1.825h0a3.105,3.105,0,0,1-2.235.7h0A3.324,3.324,0,0,1,1.594,10.2h0a2.654,2.654,0,0,1-1-.882h0A2.447,2.447,0,0,1,.22,8.193H.938Zm12.936,2.214V1.695h3.055a2.122,2.122,0,0,1,1.763.718h0a3.085,3.085,0,0,1,.574,1.948h0a7.469,7.469,0,0,1-.123,1.415h0a2.044,2.044,0,0,1-.615,1.107h0a2.124,2.124,0,0,1-1.517.472H14.57v3.055ZM17.03,6.676h0a1.372,1.372,0,0,0,1.046-.369h0a1.677,1.677,0,0,0,.41-.841h0A6.494,6.494,0,0,0,18.568,4.4h0a2.429,2.429,0,0,0-.41-1.538h0a1.446,1.446,0,0,0-1.169-.513H14.57V6.676ZM31.852,8.111h0a2.173,2.173,0,0,1-.779,1.845h0a2.868,2.868,0,0,1-1.825.595h0a3.291,3.291,0,0,1-1.271-.246h0a2.23,2.23,0,0,1-.984-.8h0a2.4,2.4,0,0,1-.369-1.394h0V4.093h0a2.521,2.521,0,0,1,.7-1.927h0a2.7,2.7,0,0,1,1.927-.656h0a2.534,2.534,0,0,1,1.907.7h0a2.576,2.576,0,0,1,.7,1.907h0Zm-.7-4.121h0a1.737,1.737,0,0,0-.533-1.374h0a2.036,2.036,0,0,0-1.394-.451h0a2.085,2.085,0,0,0-1.394.451h0a1.774,1.774,0,0,0-.513,1.374h0v4.1h0a1.648,1.648,0,0,0,.533,1.333h0a2,2,0,0,0,1.374.472h0a2.135,2.135,0,0,0,1.394-.451h0a1.637,1.637,0,0,0,.533-1.353h0ZM44.48,10.407,43.435,7.332h0q-.226.021-.492.021h-2.46v3.055h-.7V1.695H42.84a2.122,2.122,0,0,1,1.763.718h0a3.085,3.085,0,0,1,.574,1.948h0a6.065,6.065,0,0,1-.205,1.661h0a1.744,1.744,0,0,1-.882,1.087h0l1.107,3.3ZM42.943,6.676h0a1.372,1.372,0,0,0,1.046-.369h0a1.677,1.677,0,0,0,.41-.841h0A6.5,6.5,0,0,0,44.48,4.4h0a2.429,2.429,0,0,0-.41-1.538h0A1.446,1.446,0,0,0,42.9,2.351H40.483V6.676Zm11.152,3.731V2.33H51.983V1.695h5V2.33H54.792v8.077Zm10.7,0V2.33l-.841-.021V1.695h1.538v8.713Zm11.255,0-2.5-8.713h.738l2.235,7.852,2.214-7.852h.759l-2.5,8.713Zm15.683,0-.984-3.055H87.9l-.964,3.055H86.2l2.788-8.713h.656l2.85,8.713ZM89.314,2.781l-1.21,3.9h2.44Z" transform="translate(-0.22 -1.51)" fill="#415056"/>
  </g>
</svg>
