<svg xmlns="http://www.w3.org/2000/svg" width="19.102" height="19.103" viewBox="0 0 19.102 19.103">
  <g id="telephone-handle-silhouette" transform="translate(-0.01)">
    <path id="Path_6" data-name="Path 6" d="M19.071,14.8q-.081-.244-1.031-.719-.257-.15-.732-.407t-.862-.475q-.387-.217-.726-.42-.054-.041-.339-.238a3.813,3.813,0,0,0-.482-.292.888.888,0,0,0-.387-.095,1.126,1.126,0,0,0-.678.387,6.606,6.606,0,0,0-.746.841,8.18,8.18,0,0,1-.719.841,1.034,1.034,0,0,1-.624.387.923.923,0,0,1-.305-.068c-.122-.045-.215-.084-.278-.115s-.171-.095-.325-.19-.24-.147-.258-.156A14.257,14.257,0,0,1,7.39,11.722,14.25,14.25,0,0,1,5.03,8.533q-.014-.027-.156-.258t-.19-.326a2.94,2.94,0,0,1-.115-.278A.918.918,0,0,1,4.5,7.366a1.034,1.034,0,0,1,.387-.624,8.171,8.171,0,0,1,.841-.719,6.6,6.6,0,0,0,.841-.746A1.126,1.126,0,0,0,6.956,4.6a.886.886,0,0,0-.095-.387,3.771,3.771,0,0,0-.292-.482q-.2-.285-.238-.339-.2-.339-.42-.726T5.437,1.8q-.258-.475-.407-.733Q4.555.122,4.311.041A.76.76,0,0,0,4.026,0a4.47,4.47,0,0,0-.957.136A5.373,5.373,0,0,0,2.14.421,3.637,3.637,0,0,0,.7,2.076,5.26,5.26,0,0,0,.01,4.6a5.239,5.239,0,0,0,.047.712,5.853,5.853,0,0,0,.17.78q.122.434.2.644T.7,7.489q.2.543.244.665a12.289,12.289,0,0,0,1.126,2.374A20.116,20.116,0,0,0,5,14.116,20.125,20.125,0,0,0,8.584,17.04a12.308,12.308,0,0,0,2.374,1.126q.122.04.665.244t.753.278q.21.075.644.2a5.9,5.9,0,0,0,.78.17,5.032,5.032,0,0,0,3.236-.645,3.635,3.635,0,0,0,1.655-1.438,5.343,5.343,0,0,0,.285-.929,4.46,4.46,0,0,0,.136-.956A.756.756,0,0,0,19.071,14.8Z" transform="translate(0 0)"/>
  </g>
</svg>
