<svg id="youtube" xmlns="http://www.w3.org/2000/svg" width="37.737" height="37.737" viewBox="0 0 37.737 37.737">
  <path id="Path_24" data-name="Path 24" d="M224.113,215.109l6.138-3.535-6.138-3.535Zm0,0" transform="translate(-207.595 -192.706)"/>
  <path id="Path_25" data-name="Path 25" d="M18.869,0A18.869,18.869,0,1,0,37.737,18.869,18.871,18.871,0,0,0,18.869,0Zm11.79,18.888a31.142,31.142,0,0,1-.485,5.672,2.954,2.954,0,0,1-2.078,2.078c-1.845.486-9.226.486-9.226.486s-7.362,0-9.226-.5A2.955,2.955,0,0,1,7.564,24.54a31.005,31.005,0,0,1-.486-5.672A31.121,31.121,0,0,1,7.564,13.2a3.015,3.015,0,0,1,2.078-2.1c1.845-.486,9.226-.486,9.226-.486s7.381,0,9.226.5A2.955,2.955,0,0,1,30.173,13.2,29.553,29.553,0,0,1,30.659,18.888Zm0,0"/>
</svg>
